<svg width="70" height="70" viewBox="0 0 70 70" fill="none" xmlns="http://www.w3.org/2000/svg">
<circle opacity="0.2" cx="35" cy="35" r="34.5" stroke="white"/>
<path d="M29.8212 41.8925L27.6787 40.6075L30.2925 36.25H24.0425L28.9287 28.1075L31.0712 29.3925L28.4575 33.75H34.7075L29.8212 41.8925Z" fill="white"/>
<path d="M52.5 23.75H51.25V20H48.75V23.75H47.5V31.25H48.75V45.625C48.75 46.1223 48.5525 46.5992 48.2008 46.9508C47.8492 47.3025 47.3723 47.5 46.875 47.5C46.3777 47.5 45.9008 47.3025 45.5492 46.9508C45.1975 46.5992 45 46.1223 45 45.625V35C45 34.6685 44.8683 34.3505 44.6339 34.1161C44.3995 33.8817 44.0815 33.75 43.75 33.75H38.75V21.25C38.75 20.9185 38.6183 20.6005 38.3839 20.3661C38.1495 20.1317 37.8315 20 37.5 20H21.25C20.9185 20 20.6005 20.1317 20.3661 20.3661C20.1317 20.6005 20 20.9185 20 21.25V47.5H18.75C18.0596 47.5 17.5 48.0596 17.5 48.75C17.5 49.4404 18.0596 50 18.75 50H40C40.6904 50 41.25 49.4404 41.25 48.75C41.25 48.0596 40.6904 47.5 40 47.5H38.75V36.25H42.5V45.625C42.5 46.7853 42.9609 47.8981 43.7814 48.7186C44.6019 49.5391 45.7147 50 46.875 50C48.0353 50 49.1481 49.5391 49.9686 48.7186C50.7891 47.8981 51.25 46.7853 51.25 45.625V31.25H52.5V23.75ZM36.25 47.5H22.5V22.5H36.25V47.5Z" fill="white"/>
</svg>
