<svg width="70" height="70" viewBox="0 0 70 70" fill="none" xmlns="http://www.w3.org/2000/svg">
<circle opacity="0.2" cx="35" cy="35" r="34.5" stroke="white"/>
<g clip-path="url(#clip0_404_182)">
<path d="M39.2844 49.1033H36.6314V24.7895H47.8123L43.0763 32.3045C42.8361 32.6856 42.9503 33.1894 43.3315 33.4295C43.4666 33.5147 43.6169 33.5551 43.7656 33.5551C44.0364 33.5551 44.3013 33.4203 44.4563 33.1744L48.5637 26.6567L52.6709 33.1744C52.9112 33.5555 53.415 33.6697 53.796 33.4295C54.177 33.1894 54.2911 32.6856 54.051 32.3045L49.3152 24.7895H49.375C50.0732 24.7895 50.6393 24.2234 50.6393 23.5252C50.6393 22.8271 50.0733 22.261 49.375 22.261H40.0745C39.5493 21.497 38.7742 20.9186 37.8667 20.644C37.737 19.1744 36.5035 18.0217 35.0001 18.0217C33.4966 18.0217 32.2631 19.1744 32.1334 20.644C31.2259 20.9186 30.4508 21.497 29.9256 22.261H20.6251C19.9269 22.261 19.3608 22.8271 19.3608 23.5252C19.3608 24.2234 19.9268 24.7895 20.6251 24.7895H20.6849L15.9489 32.3045C15.7088 32.6856 15.823 33.1894 16.2041 33.4295C16.3392 33.5147 16.4896 33.5551 16.6382 33.5551C16.9089 33.5551 17.174 33.4203 17.329 33.1744L21.4364 26.6567L25.5437 33.1744C25.7839 33.5555 26.2876 33.6697 26.6687 33.4295C27.0498 33.1894 27.164 32.6856 26.9239 32.3045L22.188 24.7895H33.3689V49.1031H30.7159C29.1282 49.1031 27.8409 50.3904 27.8409 51.9782H42.1593C42.1593 50.3904 40.8721 49.1033 39.2844 49.1033Z" fill="white"/>
<path d="M21.4363 40.6936C18.2739 40.6936 15.6901 38.164 15.6023 35.0225H27.2704C27.1826 38.164 24.5987 40.6936 21.4363 40.6936Z" stroke="white" stroke-width="1.2"/>
<path d="M48.5639 40.6936C45.4014 40.6936 42.8176 38.164 42.7297 35.0225H54.3978C54.31 38.1641 51.7262 40.6936 48.5639 40.6936Z" stroke="white" stroke-width="1.2"/>
</g>
<defs>
<clipPath id="clip0_404_182">
<rect width="40" height="40" fill="white" transform="translate(15 15)"/>
</clipPath>
</defs>
</svg>
